<svg viewBox="0 0 33 45" fill="none" xmlns="http://www.w3.org/2000/svg" xmlns:bx="https://boxy-svg.com">
	<rect x="3" y="7" width="24" height="35" fill="white" transform="matrix(1, 0, 0, 1, 0, 1.1102230246251565e-16)" />
	<path
		d="M 8.864 5.5 C 5.628 5.5 3 8.128 3 11.364 L 3 37.546 C 3 40.781 5.628 43.409 8.864 43.409 L 24.136 43.409 C 27.372 43.409 30 40.781 30 37.546 L 30 11.364 C 30 8.128 27.372 5.5 24.136 5.5 L 8.864 5.5 Z M 10.364 12.864 L 22.636 12.864 L 22.636 31.682 L 10.364 31.682 L 10.364 12.864 Z"
		fill="#3EA45C" stroke="white" stroke-width="3" transform="matrix(1, 0, 0, 1, 0, 1.1102230246251565e-16)" />
	<path style="stroke: rgb(255, 255, 255); fill: rgb(255, 255, 255); transform-origin: 16.5005px 37.8305px;"
		d="M 14.622 37.249 H 18.39 A 0.789 0.582 0 0 1 19.179 37.831 V 37.831 A 0.789 0.582 0 0 1 18.39 38.412 H 14.611 A 0.789 0.582 0 0 1 13.822 37.831 V 37.831 A 0.8 0.582 0 0 1 14.622 37.249 Z"
		bx:shape="rect 13.822 37.249 5.357 1.163 0.8 0.789 0.789 0.789 1@cef6d414" />
</svg>